<?xml version="1.0" standalone="no"?>
<!DOCTYPE svg PUBLIC "-//W3C//DTD SVG 20010904//EN"
 "http://www.w3.org/TR/2001/REC-SVG-20010904/DTD/svg10.dtd">
<svg version="1.0" xmlns="http://www.w3.org/2000/svg"
 width="200.000000pt" height="100.000000pt" viewBox="0 0 200.000000 100.000000"
 preserveAspectRatio="xMidYMid meet">

<g transform="translate(0.000000,100.000000) scale(0.100000,-0.100000)"
fill="#000000" stroke="none">
<path d="M156 890 c-69 -22 -114 -106 -103 -192 15 -113 141 -174 231 -113 34
23 36 23 36 5 0 -18 7 -20 55 -20 52 0 55 1 55 25 0 20 -5 25 -25 25 l-25 0 0
110 0 110 25 0 c20 0 25 5 25 25 0 24 -3 25 -55 25 -49 0 -55 -2 -55 -20 0
-21 0 -21 -28 0 -33 25 -94 33 -136 20z m121 -66 c33 -21 49 -84 34 -133 -33
-112 -173 -104 -195 10 -20 108 74 180 161 123z"/>
<path d="M880 882 c-44 -22 -64 -60 -52 -103 11 -46 47 -68 127 -80 76 -12 95
-22 95 -50 0 -41 -83 -52 -137 -19 -18 11 -33 24 -33 30 0 5 -13 10 -30 10
-29 0 -30 -1 -30 -50 0 -49 1 -50 30 -50 17 0 30 4 30 9 0 6 12 3 28 -5 59
-31 163 -11 187 37 36 69 5 122 -83 139 -101 20 -115 25 -126 42 -17 27 15 53
65 53 32 0 46 -6 65 -28 14 -16 33 -27 49 -27 23 0 25 3 25 50 0 46 -2 50 -24
50 -13 0 -26 -5 -28 -10 -2 -7 -16 -5 -40 5 -48 19 -75 19 -118 -3z"/>
<path d="M1700 889 c-14 -6 -35 -20 -47 -31 l-23 -21 0 26 c0 26 -2 27 -55 27
-52 0 -55 -1 -55 -25 0 -20 5 -25 25 -25 l25 0 0 -110 0 -110 -25 0 c-20 0
-25 -5 -25 -25 0 -25 1 -25 91 -25 88 0 90 1 87 23 -2 16 -11 23 -30 25 l-28
3 0 83 c0 74 3 85 24 105 13 12 40 24 60 28 32 5 36 9 36 34 0 32 -15 36 -60
18z"/>
<path d="M583 633 c-3 -10 -8 -21 -10 -25 -6 -11 35 -48 52 -48 8 0 22 11 30
24 13 19 14 29 5 45 -14 27 -68 29 -77 4z"/>
<path d="M1267 643 c-4 -3 -7 -19 -7 -35 0 -21 7 -32 25 -40 22 -10 29 -9 47
10 19 18 20 25 10 47 -8 18 -19 25 -40 25 -16 0 -32 -3 -35 -7z"/>
</g>
</svg>
