<?xml version="1.0" standalone="no"?>
<!DOCTYPE svg PUBLIC "-//W3C//DTD SVG 20010904//EN"
 "http://www.w3.org/TR/2001/REC-SVG-20010904/DTD/svg10.dtd">
<svg version="1.0" xmlns="http://www.w3.org/2000/svg"
 width="200.000000pt" height="100.000000pt" viewBox="0 0 200.000000 100.000000"
 preserveAspectRatio="xMidYMid meet">

<g transform="translate(0.000000,100.000000) scale(0.100000,-0.100000)"
fill="#000000" stroke="none">
<path d="M1645 810 c-58 -15 -85 -30 -131 -72 -71 -65 -89 -107 -89 -208 0
-76 3 -91 30 -139 30 -55 81 -100 145 -128 38 -17 148 -23 193 -10 32 9 36 33
7 42 -24 8 -45 44 -33 55 4 5 24 10 43 12 34 3 35 4 38 53 2 50 2 50 -16 27
-49 -63 -136 -81 -200 -42 -100 61 -95 211 8 262 66 33 150 14 190 -43 l20
-28 25 25 c34 34 80 33 100 -3 15 -27 16 -27 9 -3 -38 142 -198 236 -339 200z
m98 -537 c-6 -16 -31 -20 -76 -12 -70 12 -63 26 11 25 49 -1 68 -4 65 -13z"/>
<path d="M12 788 c-9 -9 -12 -83 -12 -270 l0 -259 68 3 67 3 3 92 3 92 92 3
92 3 3 63 3 62 -96 0 -95 0 0 45 0 44 113 3 112 3 3 63 3 62 -174 0 c-121 0
-177 -4 -185 -12z"/>
<path d="M483 793 c-10 -3 -13 -67 -13 -269 l0 -264 160 0 c172 0 193 5 239
54 47 50 38 163 -15 205 l-23 18 25 49 c28 55 26 96 -7 150 -33 54 -70 64
-221 63 -73 0 -139 -3 -145 -6z m247 -113 c24 -24 25 -49 6 -75 -11 -16 -27
-20 -78 -20 l-63 0 -3 44 c-5 66 0 71 63 71 42 0 60 -5 75 -20z m24 -211 c31
-25 34 -61 6 -89 -16 -16 -33 -20 -95 -20 l-75 0 0 58 c0 32 3 62 7 65 3 4 34
7 68 7 48 0 68 -5 89 -21z"/>
<path d="M920 747 c0 -29 5 -58 12 -65 7 -7 42 -12 85 -12 l73 0 0 -205 0
-205 70 0 70 0 0 205 0 204 88 3 87 3 3 46 c5 79 5 79 -259 79 l-229 0 0 -53z"/>
</g>
</svg>
