<?xml version="1.0" standalone="no"?>
<!DOCTYPE svg PUBLIC "-//W3C//DTD SVG 20010904//EN"
 "http://www.w3.org/TR/2001/REC-SVG-20010904/DTD/svg10.dtd">
<svg version="1.0" xmlns="http://www.w3.org/2000/svg"
 width="200.000000pt" height="100.000000pt" viewBox="0 0 200.000000 100.000000"
 preserveAspectRatio="xMidYMid meet">

<g transform="translate(0.000000,100.000000) scale(0.100000,-0.100000)"
fill="#000000" stroke="none">
<path d="M728 953 c-41 -37 -76 -74 -115 -121 -15 -19 -42 -27 -162 -47 -87
-15 -151 -30 -160 -39 -13 -14 -12 -33 12 -178 31 -193 36 -201 118 -186 28 5
52 8 54 6 2 -2 13 -61 24 -133 12 -72 24 -142 27 -158 9 -43 33 -50 126 -33
46 7 97 12 114 9 24 -4 40 3 78 31 42 33 49 35 66 23 11 -8 17 -16 14 -20 -10
-10 47 -97 64 -97 22 0 115 14 223 34 48 8 108 18 135 21 132 16 349 57 362
67 15 13 10 82 -8 104 -6 6 -7 25 -4 43 6 27 0 40 -40 90 -25 33 -46 64 -46
69 0 6 11 33 24 62 27 57 24 84 -10 106 -18 12 -33 13 -73 6 -46 -8 -51 -7
-51 8 0 10 -20 43 -45 73 -25 31 -45 61 -45 67 0 6 11 33 25 61 27 53 26 76
-5 104 -15 14 -29 16 -70 10 -28 -4 -56 -13 -63 -19 -7 -8 -28 -11 -59 -8 -28
3 -61 -1 -80 -9 -18 -7 -45 -12 -59 -11 -40 5 -106 -16 -113 -34 -5 -13 -9
-14 -21 -4 -10 9 -33 11 -69 7 l-54 -5 24 35 c39 58 14 103 -58 103 -30 0 -47
-8 -80 -37z m102 -19 c0 -3 -20 -34 -45 -69 -59 -82 -91 -156 -120 -277 -23
-100 -36 -121 -82 -134 -16 -4 -30 5 -63 39 -23 25 -68 63 -101 84 -32 21 -57
42 -56 48 4 11 87 63 103 64 6 1 30 -16 54 -36 31 -27 45 -34 48 -24 3 8 22
50 44 93 46 92 159 218 196 218 12 0 22 -3 22 -6z m573 -50 c3 -3 -8 -35 -25
-69 l-32 -64 45 -56 c75 -96 74 -89 18 -100 -35 -6 -38 -5 -73 44 -21 28 -42
48 -47 45 -5 -3 -8 -29 -7 -57 l3 -52 -37 -3 c-21 -2 -38 0 -38 3 0 4 -9 63
-21 131 -12 69 -18 131 -15 139 3 9 19 15 40 15 35 0 35 0 42 -57 l7 -57 32
64 c18 35 41 67 51 71 24 10 49 11 57 3z m-276 -174 c30 -169 32 -157 -27
-165 -65 -9 -75 -1 -47 36 l22 31 -24 19 c-17 14 -33 18 -51 14 -22 -5 -32 -1
-49 21 l-21 27 6 -44 c5 -41 3 -47 -29 -77 l-35 -34 -6 29 c-15 73 -38 225
-34 228 2 2 26 7 53 10 l50 6 54 -71 c29 -39 55 -69 57 -67 2 2 0 28 -6 57
-18 96 -12 111 45 107 18 -2 23 -17 42 -127z m-332 -77 c10 -62 15 -119 12
-127 -4 -10 -19 -16 -40 -16 l-34 0 -12 73 c-12 75 -11 80 29 182 16 42 24 23
45 -112z m-195 122 c0 -2 -5 -15 -11 -29 -14 -29 -54 -38 -86 -18 -27 17 -44
12 -110 -32 l-51 -34 -7 35 c-3 19 -5 36 -3 38 3 2 231 42 256 44 6 0 12 -1
12 -4z m430 -143 c0 -4 -19 -32 -41 -62 -57 -75 -95 -162 -123 -281 -23 -98
-32 -112 -79 -140 -14 -8 -24 -3 -54 31 -20 22 -67 61 -105 87 -38 26 -67 51
-65 57 2 5 26 22 55 38 l52 30 46 -39 c35 -28 49 -34 52 -24 3 8 22 50 44 93
46 92 159 218 196 218 12 0 22 -3 22 -8z m-615 -88 c6 -34 8 -36 41 -32 26 3
39 -1 55 -18 l21 -23 -38 -7 c-22 -4 -57 -8 -79 -8 l-39 -1 -12 70 c-18 100
-18 99 15 76 19 -14 31 -33 36 -57z m1185 31 c0 -9 -11 -38 -25 -65 -14 -27
-25 -54 -25 -61 0 -6 23 -38 50 -71 28 -33 50 -64 50 -68 0 -5 -17 -12 -37
-16 -35 -7 -39 -4 -77 40 -23 25 -45 46 -49 46 -5 0 -7 -23 -5 -52 3 -49 2
-51 -27 -59 -16 -5 -33 -5 -38 0 -5 5 -18 68 -30 140 -23 144 -21 154 33 149
21 -3 26 -10 35 -56 l10 -54 32 65 c31 63 39 70 91 76 6 0 12 -6 12 -14z
m-273 -179 c13 -76 22 -140 20 -142 -2 -2 -25 -8 -51 -13 l-47 -9 -56 74 c-31
41 -57 73 -59 71 -2 -1 2 -33 8 -69 14 -83 8 -98 -35 -98 l-34 0 -23 140 c-13
77 -21 142 -19 144 2 2 25 6 51 10 l47 7 61 -78 c68 -86 64 -90 41 40 -6 34
-5 50 3 52 6 2 18 6 26 9 39 13 44 3 67 -138z m-332 -78 c10 -65 17 -120 14
-122 -2 -2 -20 -6 -39 -8 l-35 -3 -13 70 c-13 73 -10 100 24 182 21 48 25 39
49 -119z m-206 109 c-12 -28 -53 -41 -81 -26 -30 16 -58 10 -113 -25 l-54 -35
-6 30 c-4 17 -4 33 0 37 6 6 256 50 263 46 1 -1 -2 -13 -9 -27z m-176 -204 c6
-38 7 -38 45 -35 26 3 42 -1 51 -12 20 -24 6 -33 -59 -41 -33 -4 -63 -8 -67
-8 -4 -1 -13 30 -20 68 -17 101 -18 98 16 81 21 -11 30 -25 34 -53z m1007 27
c0 -5 -4 -10 -10 -10 -5 0 -10 5 -10 10 0 6 5 10 10 10 6 0 10 -4 10 -10z m51
-24 c-9 -11 -7 -15 10 -19 12 -3 19 -11 17 -18 -6 -18 -36 -35 -45 -25 -4 5
-2 11 5 13 10 4 9 8 -4 18 -20 14 -12 45 12 45 13 0 14 -3 5 -14z m-94 -25
c-4 -19 -2 -31 6 -34 15 -5 8 -13 -22 -22 -22 -7 -24 -5 -18 24 4 18 2 31 -3
31 -20 0 -9 19 13 23 12 2 24 5 26 6 2 0 1 -12 -2 -28z m51 -9 c2 -18 -1 -32
-7 -32 -6 0 -11 9 -11 19 0 11 -4 23 -10 26 -17 10 -11 27 8 23 11 -2 18 -14
20 -36z m-288 -7 c18 -49 22 -75 11 -75 -6 0 -14 12 -18 28 l-7 27 -8 -32
c-10 -40 -23 -42 -42 -5 l-15 27 -1 -32 c0 -18 -4 -33 -10 -33 -5 0 -10 25
-10 55 0 64 17 73 43 23 13 -28 16 -29 16 -11 2 54 25 70 41 28z m172 13 c11
-18 10 -58 -1 -58 -5 0 -11 10 -13 23 -2 12 -7 20 -13 17 -5 -3 -9 -16 -7 -29
2 -15 -1 -22 -10 -19 -7 3 -14 17 -16 31 -3 28 -22 38 -22 12 0 -9 -10 -20
-22 -25 l-23 -9 23 0 c30 -1 28 -21 -3 -21 -42 0 -57 59 -18 74 8 3 19 4 24 0
5 -3 16 -1 24 3 24 14 68 14 77 1z m-328 -54 c9 -25 7 -64 -4 -64 -5 0 -10 11
-10 24 0 14 -4 28 -10 31 -10 6 -14 -6 -11 -37 3 -27 -16 -30 -23 -4 -3 13 -9
31 -12 39 -4 11 2 17 18 20 42 8 46 7 52 -9z m-86 -36 c14 -37 15 -34 -24 -42
-40 -9 -54 16 -21 39 l21 15 -22 0 c-13 0 -20 4 -17 10 3 6 16 10 28 10 16 0
26 -9 35 -32z m-78 5 c0 -29 -12 -63 -21 -63 -15 0 -50 65 -38 69 6 1 17 -5
24 -15 14 -18 14 -18 15 4 0 12 5 22 10 22 6 0 10 -8 10 -17z"/>
</g>
</svg>
